# Tiled2Unity generated file. Do not modify by hand.
# Wavefront file for 'town_mesh_0005.obj'

# Vertices (Count = 60)
v -16.64 -13.76 0
v -16.96 -13.76 0
v -16.96 -13.44 0
v -16.64 -13.44 0
v -16.96 -13.76 0
v -17.28 -13.76 0
v -17.28 -13.44 0
v -16.96 -13.44 0
v -17.28 -13.76 0
v -17.6 -13.76 0
v -17.6 -13.44 0
v -17.28 -13.44 0
v -17.6 -13.76 0
v -17.92 -13.76 0
v -17.92 -13.44 0
v -17.6 -13.44 0
v -17.92 -13.76 0
v -18.24 -13.76 0
v -18.24 -13.44 0
v -17.92 -13.44 0
v -16.96 -15.04 0
v -17.28 -15.04 0
v -17.28 -14.72 0
v -16.96 -14.72 0
v -17.28 -15.04 0
v -17.6 -15.04 0
v -17.6 -14.72 0
v -17.28 -14.72 0
v -17.6 -15.04 0
v -17.92 -15.04 0
v -17.92 -14.72 0
v -17.6 -14.72 0
v -17.92 -15.04 0
v -18.24 -15.04 0
v -18.24 -14.72 0
v -17.92 -14.72 0
v -18.24 -15.04 0
v -18.56 -15.04 0
v -18.56 -14.72 0
v -18.24 -14.72 0
v -20.8 -15.04 0
v -21.12 -15.04 0
v -21.12 -14.72 0
v -20.8 -14.72 0
v -21.12 -15.04 0
v -21.44 -15.04 0
v -21.44 -14.72 0
v -21.12 -14.72 0
v -21.44 -15.04 0
v -21.76 -15.04 0
v -21.76 -14.72 0
v -21.44 -14.72 0
v -21.76 -15.04 0
v -22.08 -15.04 0
v -22.08 -14.72 0
v -21.76 -14.72 0
v -22.08 -15.04 0
v -22.4 -15.04 0
v -22.4 -14.72 0
v -22.08 -14.72 0

# Texture cooridinates (Count = 4)
vt 0.04166667 0.5555556
vt 0.08333334 0.5555556
vt 0.08333334 0.6111111
vt 0.04166667 0.6111111

# Normal
vn 0 0 -1

# Mesh description
g town_mesh_0005

# Faces
f 1/1/1 2/2/1 3/3/1 4/4/1
f 5/1/1 6/2/1 7/3/1 8/4/1
f 9/1/1 10/2/1 11/3/1 12/4/1
f 13/1/1 14/2/1 15/3/1 16/4/1
f 17/1/1 18/2/1 19/3/1 20/4/1
f 21/1/1 22/2/1 23/3/1 24/4/1
f 25/1/1 26/2/1 27/3/1 28/4/1
f 29/1/1 30/2/1 31/3/1 32/4/1
f 33/1/1 34/2/1 35/3/1 36/4/1
f 37/1/1 38/2/1 39/3/1 40/4/1
f 41/1/1 42/2/1 43/3/1 44/4/1
f 45/1/1 46/2/1 47/3/1 48/4/1
f 49/1/1 50/2/1 51/3/1 52/4/1
f 53/1/1 54/2/1 55/3/1 56/4/1
f 57/1/1 58/2/1 59/3/1 60/4/1

