# Tiled2Unity generated file. Do not modify by hand.
# Wavefront file for 'helloworld_mesh_0007.obj'

# Vertices (Count = 116)
v -8 -9.28 0
v -8.32 -9.28 0
v -8.32 -8.96 0
v -8 -8.96 0
v -8.96 -9.28 0
v -9.28 -9.28 0
v -9.28 -8.96 0
v -8.96 -8.96 0
v -8 -9.599999 0
v -8.32 -9.599999 0
v -8.32 -9.28 0
v -8 -9.28 0
v -8.96 -9.599999 0
v -9.28 -9.599999 0
v -9.28 -9.28 0
v -8.96 -9.28 0
v -8 -9.92 0
v -8.32 -9.92 0
v -8.32 -9.599999 0
v -8 -9.599999 0
v -8.96 -9.92 0
v -9.28 -9.92 0
v -9.28 -9.599999 0
v -8.96 -9.599999 0
v 0 -10.24 0
v -0.32 -10.24 0
v -0.32 -9.92 0
v 0 -9.92 0
v -0.96 -10.24 0
v -1.28 -10.24 0
v -1.28 -9.92 0
v -0.96 -9.92 0
v -2.88 -10.24 0
v -3.2 -10.24 0
v -3.2 -9.92 0
v -2.88 -9.92 0
v -3.52 -10.24 0
v -3.84 -10.24 0
v -3.84 -9.92 0
v -3.52 -9.92 0
v -4.8 -10.24 0
v -5.12 -10.24 0
v -5.12 -9.92 0
v -4.8 -9.92 0
v -5.76 -10.24 0
v -6.08 -10.24 0
v -6.08 -9.92 0
v -5.76 -9.92 0
v -7.04 -10.24 0
v -7.36 -10.24 0
v -7.36 -9.92 0
v -7.04 -9.92 0
v -8 -10.24 0
v -8.32 -10.24 0
v -8.32 -9.92 0
v -8 -9.92 0
v -8.96 -10.24 0
v -9.28 -10.24 0
v -9.28 -9.92 0
v -8.96 -9.92 0
v -9.92 -10.24 0
v -10.24 -10.24 0
v -10.24 -9.92 0
v -9.92 -9.92 0
v -10.88 -10.24 0
v -11.2 -10.24 0
v -11.2 -9.92 0
v -10.88 -9.92 0
v -11.84 -10.24 0
v -12.16 -10.24 0
v -12.16 -9.92 0
v -11.84 -9.92 0
v -13.76 -10.24 0
v -14.08 -10.24 0
v -14.08 -9.92 0
v -13.76 -9.92 0
v -14.72 -10.24 0
v -15.04 -10.24 0
v -15.04 -9.92 0
v -14.72 -9.92 0
v -1.92 -10.56 0
v -2.24 -10.56 0
v -2.24 -10.24 0
v -1.92 -10.24 0
v -4.48 -10.56 0
v -4.8 -10.56 0
v -4.8 -10.24 0
v -4.48 -10.24 0
v -5.44 -10.56 0
v -5.76 -10.56 0
v -5.76 -10.24 0
v -5.44 -10.24 0
v -8 -10.56 0
v -8.32 -10.56 0
v -8.32 -10.24 0
v -8 -10.24 0
v -8.32 -10.56 0
v -8.639999 -10.56 0
v -8.639999 -10.24 0
v -8.32 -10.24 0
v -8.639999 -10.56 0
v -8.96 -10.56 0
v -8.96 -10.24 0
v -8.639999 -10.24 0
v -8.96 -10.56 0
v -9.28 -10.56 0
v -9.28 -10.24 0
v -8.96 -10.24 0
v -12.48 -10.56 0
v -12.8 -10.56 0
v -12.8 -10.24 0
v -12.48 -10.24 0
v -14.72 -10.56 0
v -15.04 -10.56 0
v -15.04 -10.24 0
v -14.72 -10.24 0

# Texture cooridinates (Count = 34)
vt 0 0.40625
vt 0.03125 0.40625
vt 0.03125 0.4375
vt 0 0.4375
vt 0.0625 0.40625
vt 0.09375 0.40625
vt 0.09375 0.4375
vt 0.0625 0.4375
vt 0 0.375
vt 0.03125 0.375
vt 0.0625 0.375
vt 0.09375 0.375
vt 0 0.34375
vt 0.03125 0.34375
vt 0.0625 0.34375
vt 0.09375 0.34375
vt 0.34375 0.4375
vt 0.375 0.4375
vt 0.375 0.46875
vt 0.34375 0.46875
vt 0.3125 0.4375
vt 0.3125 0.46875
vt 0.25 0.4375
vt 0.28125 0.4375
vt 0.28125 0.46875
vt 0.25 0.46875
vt 0 0.3125
vt 0.03125 0.3125
vt 0.0625 0.3125
vt 0.09375 0.3125
vt 0 0.28125
vt 0.03125 0.28125
vt 0.0625 0.28125
vt 0.09375 0.28125

# Normal
vn 0 0 -1

# Mesh description
g helloworld_mesh_0007

# Faces
f 1/1/1 2/2/1 3/3/1 4/4/1
f 5/5/1 6/6/1 7/7/1 8/8/1
f 9/9/1 10/10/1 11/2/1 12/1/1
f 13/11/1 14/12/1 15/6/1 16/5/1
f 17/13/1 18/14/1 19/10/1 20/9/1
f 21/15/1 22/16/1 23/12/1 24/11/1
f 25/17/1 26/18/1 27/19/1 28/20/1
f 29/21/1 30/17/1 31/20/1 32/22/1
f 33/21/1 34/17/1 35/20/1 36/22/1
f 37/23/1 38/24/1 39/25/1 40/26/1
f 41/24/1 42/21/1 43/22/1 44/25/1
f 45/23/1 46/24/1 47/25/1 48/26/1
f 49/21/1 50/17/1 51/20/1 52/22/1
f 53/27/1 54/28/1 55/14/1 56/13/1
f 57/29/1 58/30/1 59/16/1 60/15/1
f 61/24/1 62/21/1 63/22/1 64/25/1
f 65/21/1 66/17/1 67/20/1 68/22/1
f 69/23/1 70/24/1 71/25/1 72/26/1
f 73/24/1 74/21/1 75/22/1 76/25/1
f 77/21/1 78/17/1 79/20/1 80/22/1
f 81/21/1 82/17/1 83/20/1 84/22/1
f 85/23/1 86/24/1 87/25/1 88/26/1
f 89/21/1 90/17/1 91/20/1 92/22/1
f 93/31/1 94/32/1 95/28/1 96/27/1
f 97/31/1 98/32/1 99/28/1 100/27/1
f 101/32/1 102/33/1 103/29/1 104/28/1
f 105/33/1 106/34/1 107/30/1 108/29/1
f 109/21/1 110/17/1 111/20/1 112/22/1
f 113/21/1 114/17/1 115/20/1 116/22/1

