# Tiled2Unity generated file. Do not modify by hand.
# Wavefront file for 'helloworld_mesh_0006.obj'

# Vertices (Count = 488)
v -11.52 -3.84 0
v -11.84 -3.84 0
v -11.84 -3.52 0
v -11.52 -3.52 0
v -11.84 -3.84 0
v -12.16 -3.84 0
v -12.16 -3.52 0
v -11.84 -3.52 0
v -12.48 -3.84 0
v -12.8 -3.84 0
v -12.8 -3.52 0
v -12.48 -3.52 0
v -12.8 -3.84 0
v -13.12 -3.84 0
v -13.12 -3.52 0
v -12.8 -3.52 0
v -13.12 -3.84 0
v -13.44 -3.84 0
v -13.44 -3.52 0
v -13.12 -3.52 0
v -13.76 -3.84 0
v -14.08 -3.84 0
v -14.08 -3.52 0
v -13.76 -3.52 0
v -14.08 -3.84 0
v -14.4 -3.84 0
v -14.4 -3.52 0
v -14.08 -3.52 0
v -10.56 -4.16 0
v -10.88 -4.16 0
v -10.88 -3.84 0
v -10.56 -3.84 0
v -10.56 -4.48 0
v -10.88 -4.48 0
v -10.88 -4.16 0
v -10.56 -4.16 0
v -11.84 -4.48 0
v -12.16 -4.48 0
v -12.16 -4.16 0
v -11.84 -4.16 0
v -13.76 -4.48 0
v -14.08 -4.48 0
v -14.08 -4.16 0
v -13.76 -4.16 0
v -10.56 -4.8 0
v -10.88 -4.8 0
v -10.88 -4.48 0
v -10.56 -4.48 0
v -12.48 -4.8 0
v -12.8 -4.8 0
v -12.8 -4.48 0
v -12.48 -4.48 0
v -13.12 -4.8 0
v -13.44 -4.8 0
v -13.44 -4.48 0
v -13.12 -4.48 0
v -10.56 -5.12 0
v -10.88 -5.12 0
v -10.88 -4.8 0
v -10.56 -4.8 0
v -12.48 -5.12 0
v -12.8 -5.12 0
v -12.8 -4.8 0
v -12.48 -4.8 0
v -12.8 -5.12 0
v -13.12 -5.12 0
v -13.12 -4.8 0
v -12.8 -4.8 0
v -13.12 -5.12 0
v -13.44 -5.12 0
v -13.44 -4.8 0
v -13.12 -4.8 0
v -8.96 -5.44 0
v -9.28 -5.44 0
v -9.28 -5.12 0
v -8.96 -5.12 0
v -9.28 -5.44 0
v -9.599999 -5.44 0
v -9.599999 -5.12 0
v -9.28 -5.12 0
v -9.599999 -5.44 0
v -9.92 -5.44 0
v -9.92 -5.12 0
v -9.599999 -5.12 0
v -9.92 -5.44 0
v -10.24 -5.44 0
v -10.24 -5.12 0
v -9.92 -5.12 0
v -10.24 -5.44 0
v -10.56 -5.44 0
v -10.56 -5.12 0
v -10.24 -5.12 0
v -10.56 -5.44 0
v -10.88 -5.44 0
v -10.88 -5.12 0
v -10.56 -5.12 0
v -11.52 -5.44 0
v -11.84 -5.44 0
v -11.84 -5.12 0
v -11.52 -5.12 0
v -11.84 -5.44 0
v -12.16 -5.44 0
v -12.16 -5.12 0
v -11.84 -5.12 0
v -12.8 -5.44 0
v -13.12 -5.44 0
v -13.12 -5.12 0
v -12.8 -5.12 0
v -13.76 -5.44 0
v -14.08 -5.44 0
v -14.08 -5.12 0
v -13.76 -5.12 0
v -14.08 -5.44 0
v -14.4 -5.44 0
v -14.4 -5.12 0
v -14.08 -5.12 0
v -8.32 -5.76 0
v -8.639999 -5.76 0
v -8.639999 -5.44 0
v -8.32 -5.44 0
v -8.639999 -5.76 0
v -8.96 -5.76 0
v -8.96 -5.44 0
v -8.639999 -5.44 0
v -11.52 -5.76 0
v -11.84 -5.76 0
v -11.84 -5.44 0
v -11.52 -5.44 0
v -11.84 -5.76 0
v -12.16 -5.76 0
v -12.16 -5.44 0
v -11.84 -5.44 0
v -13.76 -5.76 0
v -14.08 -5.76 0
v -14.08 -5.44 0
v -13.76 -5.44 0
v -14.08 -5.76 0
v -14.4 -5.76 0
v -14.4 -5.44 0
v -14.08 -5.44 0
v -8.32 -6.08 0
v -8.639999 -6.08 0
v -8.639999 -5.76 0
v -8.32 -5.76 0
v -8.639999 -6.08 0
v -8.96 -6.08 0
v -8.96 -5.76 0
v -8.639999 -5.76 0
v -8.32 -6.4 0
v -8.639999 -6.4 0
v -8.639999 -6.08 0
v -8.32 -6.08 0
v -8.639999 -6.4 0
v -8.96 -6.4 0
v -8.96 -6.08 0
v -8.639999 -6.08 0
v -8.32 -6.72 0
v -8.639999 -6.72 0
v -8.639999 -6.4 0
v -8.32 -6.4 0
v -8.639999 -6.72 0
v -8.96 -6.72 0
v -8.96 -6.4 0
v -8.639999 -6.4 0
v -8.32 -7.04 0
v -8.639999 -7.04 0
v -8.639999 -6.72 0
v -8.32 -6.72 0
v -8.639999 -7.04 0
v -8.96 -7.04 0
v -8.96 -6.72 0
v -8.639999 -6.72 0
v -8.32 -7.36 0
v -8.639999 -7.36 0
v -8.639999 -7.04 0
v -8.32 -7.04 0
v -8.639999 -7.36 0
v -8.96 -7.36 0
v -8.96 -7.04 0
v -8.639999 -7.04 0
v -8.32 -7.68 0
v -8.639999 -7.68 0
v -8.639999 -7.36 0
v -8.32 -7.36 0
v -8.639999 -7.68 0
v -8.96 -7.68 0
v -8.96 -7.36 0
v -8.639999 -7.36 0
v -8.96 -7.68 0
v -9.28 -7.68 0
v -9.28 -7.36 0
v -8.96 -7.36 0
v -9.28 -7.68 0
v -9.599999 -7.68 0
v -9.599999 -7.36 0
v -9.28 -7.36 0
v -14.4 -7.68 0
v -14.72 -7.68 0
v -14.72 -7.36 0
v -14.4 -7.36 0
v -14.72 -7.68 0
v -15.04 -7.68 0
v -15.04 -7.36 0
v -14.72 -7.36 0
v -8.32 -8 0
v -8.639999 -8 0
v -8.639999 -7.68 0
v -8.32 -7.68 0
v -8.639999 -8 0
v -8.96 -8 0
v -8.96 -7.68 0
v -8.639999 -7.68 0
v -8.96 -8 0
v -9.28 -8 0
v -9.28 -7.68 0
v -8.96 -7.68 0
v -9.28 -8 0
v -9.599999 -8 0
v -9.599999 -7.68 0
v -9.28 -7.68 0
v -10.56 -8 0
v -10.88 -8 0
v -10.88 -7.68 0
v -10.56 -7.68 0
v -14.4 -8 0
v -14.72 -8 0
v -14.72 -7.68 0
v -14.4 -7.68 0
v -14.72 -8 0
v -15.04 -8 0
v -15.04 -7.68 0
v -14.72 -7.68 0
v 0 -8.32 0
v -0.32 -8.32 0
v -0.32 -8 0
v 0 -8 0
v -0.32 -8.32 0
v -0.64 -8.32 0
v -0.64 -8 0
v -0.32 -8 0
v -0.64 -8.32 0
v -0.96 -8.32 0
v -0.96 -8 0
v -0.64 -8 0
v -0.96 -8.32 0
v -1.28 -8.32 0
v -1.28 -8 0
v -0.96 -8 0
v -1.28 -8.32 0
v -1.6 -8.32 0
v -1.6 -8 0
v -1.28 -8 0
v -1.6 -8.32 0
v -1.92 -8.32 0
v -1.92 -8 0
v -1.6 -8 0
v -1.92 -8.32 0
v -2.24 -8.32 0
v -2.24 -8 0
v -1.92 -8 0
v -2.24 -8.32 0
v -2.56 -8.32 0
v -2.56 -8 0
v -2.24 -8 0
v -2.56 -8.32 0
v -2.88 -8.32 0
v -2.88 -8 0
v -2.56 -8 0
v -2.88 -8.32 0
v -3.2 -8.32 0
v -3.2 -8 0
v -2.88 -8 0
v -3.2 -8.32 0
v -3.52 -8.32 0
v -3.52 -8 0
v -3.2 -8 0
v -3.52 -8.32 0
v -3.84 -8.32 0
v -3.84 -8 0
v -3.52 -8 0
v -3.84 -8.32 0
v -4.16 -8.32 0
v -4.16 -8 0
v -3.84 -8 0
v -4.16 -8.32 0
v -4.48 -8.32 0
v -4.48 -8 0
v -4.16 -8 0
v -4.48 -8.32 0
v -4.8 -8.32 0
v -4.8 -8 0
v -4.48 -8 0
v -4.8 -8.32 0
v -5.12 -8.32 0
v -5.12 -8 0
v -4.8 -8 0
v -5.12 -8.32 0
v -5.44 -8.32 0
v -5.44 -8 0
v -5.12 -8 0
v -5.44 -8.32 0
v -5.76 -8.32 0
v -5.76 -8 0
v -5.44 -8 0
v -5.76 -8.32 0
v -6.08 -8.32 0
v -6.08 -8 0
v -5.76 -8 0
v -6.08 -8.32 0
v -6.4 -8.32 0
v -6.4 -8 0
v -6.08 -8 0
v -6.4 -8.32 0
v -6.72 -8.32 0
v -6.72 -8 0
v -6.4 -8 0
v -6.72 -8.32 0
v -7.04 -8.32 0
v -7.04 -8 0
v -6.72 -8 0
v -7.04 -8.32 0
v -7.36 -8.32 0
v -7.36 -8 0
v -7.04 -8 0
v -7.36 -8.32 0
v -7.68 -8.32 0
v -7.68 -8 0
v -7.36 -8 0
v -7.68 -8.32 0
v -8 -8.32 0
v -8 -8 0
v -7.68 -8 0
v -8 -8.32 0
v -8.32 -8.32 0
v -8.32 -8 0
v -8 -8 0
v -8.32 -8.32 0
v -8.639999 -8.32 0
v -8.639999 -8 0
v -8.32 -8 0
v -8.639999 -8.32 0
v -8.96 -8.32 0
v -8.96 -8 0
v -8.639999 -8 0
v -8.96 -8.32 0
v -9.28 -8.32 0
v -9.28 -8 0
v -8.96 -8 0
v -9.28 -8.32 0
v -9.599999 -8.32 0
v -9.599999 -8 0
v -9.28 -8 0
v -9.599999 -8.32 0
v -9.92 -8.32 0
v -9.92 -8 0
v -9.599999 -8 0
v -9.92 -8.32 0
v -10.24 -8.32 0
v -10.24 -8 0
v -9.92 -8 0
v -10.24 -8.32 0
v -10.56 -8.32 0
v -10.56 -8 0
v -10.24 -8 0
v -10.56 -8.32 0
v -10.88 -8.32 0
v -10.88 -8 0
v -10.56 -8 0
v -10.88 -8.32 0
v -11.2 -8.32 0
v -11.2 -8 0
v -10.88 -8 0
v -11.2 -8.32 0
v -11.52 -8.32 0
v -11.52 -8 0
v -11.2 -8 0
v -11.52 -8.32 0
v -11.84 -8.32 0
v -11.84 -8 0
v -11.52 -8 0
v -11.84 -8.32 0
v -12.16 -8.32 0
v -12.16 -8 0
v -11.84 -8 0
v -12.16 -8.32 0
v -12.48 -8.32 0
v -12.48 -8 0
v -12.16 -8 0
v -12.48 -8.32 0
v -12.8 -8.32 0
v -12.8 -8 0
v -12.48 -8 0
v -12.8 -8.32 0
v -13.12 -8.32 0
v -13.12 -8 0
v -12.8 -8 0
v -13.12 -8.32 0
v -13.44 -8.32 0
v -13.44 -8 0
v -13.12 -8 0
v -13.44 -8.32 0
v -13.76 -8.32 0
v -13.76 -8 0
v -13.44 -8 0
v -13.76 -8.32 0
v -14.08 -8.32 0
v -14.08 -8 0
v -13.76 -8 0
v -14.08 -8.32 0
v -14.4 -8.32 0
v -14.4 -8 0
v -14.08 -8 0
v -14.4 -8.32 0
v -14.72 -8.32 0
v -14.72 -8 0
v -14.4 -8 0
v -14.72 -8.32 0
v -15.04 -8.32 0
v -15.04 -8 0
v -14.72 -8 0
v -15.04 -8.32 0
v -15.36 -8.32 0
v -15.36 -8 0
v -15.04 -8 0
v -15.36 -8.32 0
v -15.68 -8.32 0
v -15.68 -8 0
v -15.36 -8 0
v -15.68 -8.32 0
v -16 -8.32 0
v -16 -8 0
v -15.68 -8 0
v -8.32 -8.639999 0
v -8.639999 -8.639999 0
v -8.639999 -8.32 0
v -8.32 -8.32 0
v -8.639999 -8.639999 0
v -8.96 -8.639999 0
v -8.96 -8.32 0
v -8.639999 -8.32 0
v -10.56 -8.639999 0
v -10.88 -8.639999 0
v -10.88 -8.32 0
v -10.56 -8.32 0
v -8.32 -8.96 0
v -8.639999 -8.96 0
v -8.639999 -8.639999 0
v -8.32 -8.639999 0
v -8.639999 -8.96 0
v -8.96 -8.96 0
v -8.96 -8.639999 0
v -8.639999 -8.639999 0
v -10.56 -8.96 0
v -10.88 -8.96 0
v -10.88 -8.639999 0
v -10.56 -8.639999 0
v -10.56 -9.28 0
v -10.88 -9.28 0
v -10.88 -8.96 0
v -10.56 -8.96 0
v -10.56 -9.599999 0
v -10.88 -9.599999 0
v -10.88 -9.28 0
v -10.56 -9.28 0
v -10.56 -9.92 0
v -10.88 -9.92 0
v -10.88 -9.599999 0
v -10.56 -9.599999 0
v -10.56 -10.24 0
v -10.88 -10.24 0
v -10.88 -9.92 0
v -10.56 -9.92 0
v -10.56 -10.56 0
v -10.88 -10.56 0
v -10.88 -10.24 0
v -10.56 -10.24 0
v -10.56 -10.88 0
v -10.88 -10.88 0
v -10.88 -10.56 0
v -10.56 -10.56 0
v -10.56 -11.2 0
v -10.88 -11.2 0
v -10.88 -10.88 0
v -10.56 -10.88 0
v -10.56 -11.52 0
v -10.88 -11.52 0
v -10.88 -11.2 0
v -10.56 -11.2 0

# Texture cooridinates (Count = 67)
vt 0.125 0.625
vt 0.15625 0.625
vt 0.15625 0.65625
vt 0.125 0.65625
vt 0.46875 0.59375
vt 0.5 0.59375
vt 0.5 0.625
vt 0.46875 0.625
vt 0 0.3125
vt 0.03125 0.3125
vt 0.03125 0.34375
vt 0 0.34375
vt 0.875 0.28125
vt 0.90625 0.28125
vt 0.90625 0.3125
vt 0.875 0.3125
vt 0.1875 0.6875
vt 0.21875 0.6875
vt 0.21875 0.71875
vt 0.1875 0.71875
vt 0.875 0.25
vt 0.90625 0.25
vt 0.09375 0.6875
vt 0.125 0.6875
vt 0.125 0.71875
vt 0.09375 0.71875
vt 0.1875 0.65625
vt 0.21875 0.65625
vt 0.59375 0.46875
vt 0.625 0.46875
vt 0.625 0.5
vt 0.59375 0.5
vt 0.65625 0.46875
vt 0.65625 0.5
vt 0.09375 0.65625
vt 0.5625 0.53125
vt 0.59375 0.53125
vt 0.59375 0.5625
vt 0.5625 0.5625
vt 0.1875 0.46875
vt 0.21875 0.46875
vt 0.21875 0.5
vt 0.1875 0.5
vt 0.15625 0.46875
vt 0.15625 0.5
vt 0.59375 0.4375
vt 0.625 0.4375
vt 0.65625 0.4375
vt 0.5625 0.5
vt 0.4375 0.40625
vt 0.46875 0.40625
vt 0.46875 0.4375
vt 0.4375 0.4375
vt 0.21875 0.375
vt 0.25 0.375
vt 0.25 0.40625
vt 0.21875 0.40625
vt 0.4375 0.375
vt 0.46875 0.375
vt 0.25 0.46875
vt 0.28125 0.46875
vt 0.28125 0.5
vt 0.25 0.5
vt 0.3125 0.46875
vt 0.3125 0.5
vt 0.4375 0.34375
vt 0.46875 0.34375

# Normal
vn 0 0 -1

# Mesh description
g helloworld_mesh_0006

# Faces
f 1/1/1 2/2/1 3/3/1 4/4/1
f 5/1/1 6/2/1 7/3/1 8/4/1
f 9/1/1 10/2/1 11/3/1 12/4/1
f 13/1/1 14/2/1 15/3/1 16/4/1
f 17/1/1 18/2/1 19/3/1 20/4/1
f 21/1/1 22/2/1 23/3/1 24/4/1
f 25/1/1 26/2/1 27/3/1 28/4/1
f 29/5/1 30/6/1 31/7/1 32/8/1
f 33/5/1 34/6/1 35/7/1 36/8/1
f 37/9/1 38/10/1 39/11/1 40/12/1
f 41/9/1 42/10/1 43/11/1 44/12/1
f 45/5/1 46/6/1 47/7/1 48/8/1
f 49/13/1 50/14/1 51/15/1 52/16/1
f 53/13/1 54/14/1 55/15/1 56/16/1
f 57/17/1 58/18/1 59/19/1 60/20/1
f 61/21/1 62/22/1 63/14/1 64/13/1
f 65/23/1 66/24/1 67/25/1 68/26/1
f 69/21/1 70/22/1 71/14/1 72/13/1
f 73/5/1 74/6/1 75/7/1 76/8/1
f 77/5/1 78/6/1 79/7/1 80/8/1
f 81/5/1 82/6/1 83/7/1 84/8/1
f 85/5/1 86/6/1 87/7/1 88/8/1
f 89/5/1 90/6/1 91/7/1 92/8/1
f 93/27/1 94/28/1 95/18/1 96/17/1
f 97/29/1 98/30/1 99/31/1 100/32/1
f 101/30/1 102/33/1 103/34/1 104/31/1
f 105/35/1 106/4/1 107/24/1 108/23/1
f 109/36/1 110/37/1 111/38/1 112/39/1
f 113/36/1 114/37/1 115/38/1 116/39/1
f 117/40/1 118/41/1 119/42/1 120/43/1
f 121/44/1 122/40/1 123/43/1 124/45/1
f 125/46/1 126/47/1 127/30/1 128/29/1
f 129/47/1 130/48/1 131/33/1 132/30/1
f 133/49/1 134/32/1 135/37/1 136/36/1
f 137/49/1 138/32/1 139/37/1 140/36/1
f 141/40/1 142/41/1 143/42/1 144/43/1
f 145/44/1 146/40/1 147/43/1 148/45/1
f 149/40/1 150/41/1 151/42/1 152/43/1
f 153/44/1 154/40/1 155/43/1 156/45/1
f 157/40/1 158/41/1 159/42/1 160/43/1
f 161/44/1 162/40/1 163/43/1 164/45/1
f 165/40/1 166/41/1 167/42/1 168/43/1
f 169/44/1 170/40/1 171/43/1 172/45/1
f 173/40/1 174/41/1 175/42/1 176/43/1
f 177/44/1 178/40/1 179/43/1 180/45/1
f 181/40/1 182/41/1 183/42/1 184/43/1
f 185/44/1 186/40/1 187/43/1 188/45/1
f 189/29/1 190/30/1 191/31/1 192/32/1
f 193/30/1 194/33/1 195/34/1 196/31/1
f 197/29/1 198/30/1 199/31/1 200/32/1
f 201/30/1 202/33/1 203/34/1 204/31/1
f 205/40/1 206/41/1 207/42/1 208/43/1
f 209/44/1 210/40/1 211/43/1 212/45/1
f 213/46/1 214/47/1 215/30/1 216/29/1
f 217/47/1 218/48/1 219/33/1 220/30/1
f 221/50/1 222/51/1 223/52/1 224/53/1
f 225/46/1 226/47/1 227/30/1 228/29/1
f 229/47/1 230/48/1 231/33/1 232/30/1
f 233/54/1 234/55/1 235/56/1 236/57/1
f 237/54/1 238/55/1 239/56/1 240/57/1
f 241/54/1 242/55/1 243/56/1 244/57/1
f 245/54/1 246/55/1 247/56/1 248/57/1
f 249/54/1 250/55/1 251/56/1 252/57/1
f 253/54/1 254/55/1 255/56/1 256/57/1
f 257/54/1 258/55/1 259/56/1 260/57/1
f 261/54/1 262/55/1 263/56/1 264/57/1
f 265/54/1 266/55/1 267/56/1 268/57/1
f 269/54/1 270/55/1 271/56/1 272/57/1
f 273/54/1 274/55/1 275/56/1 276/57/1
f 277/54/1 278/55/1 279/56/1 280/57/1
f 281/54/1 282/55/1 283/56/1 284/57/1
f 285/54/1 286/55/1 287/56/1 288/57/1
f 289/54/1 290/55/1 291/56/1 292/57/1
f 293/54/1 294/55/1 295/56/1 296/57/1
f 297/54/1 298/55/1 299/56/1 300/57/1
f 301/54/1 302/55/1 303/56/1 304/57/1
f 305/54/1 306/55/1 307/56/1 308/57/1
f 309/54/1 310/55/1 311/56/1 312/57/1
f 313/54/1 314/55/1 315/56/1 316/57/1
f 317/54/1 318/55/1 319/56/1 320/57/1
f 321/54/1 322/55/1 323/56/1 324/57/1
f 325/54/1 326/55/1 327/56/1 328/57/1
f 329/54/1 330/55/1 331/56/1 332/57/1
f 333/54/1 334/55/1 335/56/1 336/57/1
f 337/40/1 338/41/1 339/42/1 340/43/1
f 341/44/1 342/40/1 343/43/1 344/45/1
f 345/54/1 346/55/1 347/56/1 348/57/1
f 349/54/1 350/55/1 351/56/1 352/57/1
f 353/54/1 354/55/1 355/56/1 356/57/1
f 357/54/1 358/55/1 359/56/1 360/57/1
f 361/54/1 362/55/1 363/56/1 364/57/1
f 365/58/1 366/59/1 367/51/1 368/50/1
f 369/54/1 370/55/1 371/56/1 372/57/1
f 373/54/1 374/55/1 375/56/1 376/57/1
f 377/54/1 378/55/1 379/56/1 380/57/1
f 381/54/1 382/55/1 383/56/1 384/57/1
f 385/54/1 386/55/1 387/56/1 388/57/1
f 389/54/1 390/55/1 391/56/1 392/57/1
f 393/54/1 394/55/1 395/56/1 396/57/1
f 397/54/1 398/55/1 399/56/1 400/57/1
f 401/54/1 402/55/1 403/56/1 404/57/1
f 405/54/1 406/55/1 407/56/1 408/57/1
f 409/54/1 410/55/1 411/56/1 412/57/1
f 413/54/1 414/55/1 415/56/1 416/57/1
f 417/54/1 418/55/1 419/56/1 420/57/1
f 421/54/1 422/55/1 423/56/1 424/57/1
f 425/54/1 426/55/1 427/56/1 428/57/1
f 429/54/1 430/55/1 431/56/1 432/57/1
f 433/40/1 434/41/1 435/42/1 436/43/1
f 437/44/1 438/40/1 439/43/1 440/45/1
f 441/58/1 442/59/1 443/51/1 444/50/1
f 445/60/1 446/61/1 447/62/1 448/63/1
f 449/61/1 450/64/1 451/65/1 452/62/1
f 453/58/1 454/59/1 455/51/1 456/50/1
f 457/58/1 458/59/1 459/51/1 460/50/1
f 461/58/1 462/59/1 463/51/1 464/50/1
f 465/58/1 466/59/1 467/51/1 468/50/1
f 469/58/1 470/59/1 471/51/1 472/50/1
f 473/58/1 474/59/1 475/51/1 476/50/1
f 477/58/1 478/59/1 479/51/1 480/50/1
f 481/58/1 482/59/1 483/51/1 484/50/1
f 485/66/1 486/67/1 487/59/1 488/58/1

