# Tiled2Unity generated file. Do not modify by hand.
# Wavefront file for 'NewTown_mesh_0010.obj'

# Vertices (Count = 16)
v -11.04 -6.72 0
v -11.2 -6.72 0
v -11.2 -6.56 0
v -11.04 -6.56 0
v -10.72 -6.72 0
v -10.88 -6.72 0
v -10.88 -6.56 0
v -10.72 -6.56 0
v -11.04 -6.56 0
v -11.2 -6.56 0
v -11.2 -6.4 0
v -11.04 -6.4 0
v -10.72 -6.56 0
v -10.88 -6.56 0
v -10.88 -6.4 0
v -10.72 -6.4 0

# Texture cooridinates (Count = 6)
vt 0.25 0.7916667
vt 0.2692308 0.7916667
vt 0.2692308 0.8333333
vt 0.25 0.8333333
vt 0.2692308 0.875
vt 0.25 0.875

# Normal
vn 0 0 -1

# Mesh description
g NewTown_mesh_0010

# Faces
f 1/1/1 2/2/1 3/3/1 4/4/1
f 5/1/1 6/2/1 7/3/1 8/4/1
f 9/4/1 10/3/1 11/5/1 12/6/1
f 13/4/1 14/3/1 15/5/1 16/6/1

