# Tiled2Unity generated file. Do not modify by hand.
# Wavefront file for 'NewTown_mesh_0009.obj'

# Vertices (Count = 196)
v -10.4 -6.56 0
v -10.56 -6.56 0
v -10.56 -6.4 0
v -10.4 -6.4 0
v -10.24 -6.56 0
v -10.4 -6.56 0
v -10.4 -6.4 0
v -10.24 -6.4 0
v -10.08 -6.56 0
v -10.24 -6.56 0
v -10.24 -6.4 0
v -10.08 -6.4 0
v -9.92 -6.56 0
v -10.08 -6.56 0
v -10.08 -6.4 0
v -9.92 -6.4 0
v -9.76 -6.56 0
v -9.92 -6.56 0
v -9.92 -6.4 0
v -9.76 -6.4 0
v -9.599999 -6.56 0
v -9.76 -6.56 0
v -9.76 -6.4 0
v -9.599999 -6.4 0
v -9.44 -6.56 0
v -9.599999 -6.56 0
v -9.599999 -6.4 0
v -9.44 -6.4 0
v -10.4 -6.4 0
v -10.56 -6.4 0
v -10.56 -6.24 0
v -10.4 -6.24 0
v -10.24 -6.4 0
v -10.4 -6.4 0
v -10.4 -6.24 0
v -10.24 -6.24 0
v -10.08 -6.4 0
v -10.24 -6.4 0
v -10.24 -6.24 0
v -10.08 -6.24 0
v -9.92 -6.4 0
v -10.08 -6.4 0
v -10.08 -6.24 0
v -9.92 -6.24 0
v -9.76 -6.4 0
v -9.92 -6.4 0
v -9.92 -6.24 0
v -9.76 -6.24 0
v -9.599999 -6.4 0
v -9.76 -6.4 0
v -9.76 -6.24 0
v -9.599999 -6.24 0
v -9.44 -6.4 0
v -9.599999 -6.4 0
v -9.599999 -6.24 0
v -9.44 -6.24 0
v -10.4 -6.24 0
v -10.56 -6.24 0
v -10.56 -6.08 0
v -10.4 -6.08 0
v -10.24 -6.24 0
v -10.4 -6.24 0
v -10.4 -6.08 0
v -10.24 -6.08 0
v -10.08 -6.24 0
v -10.24 -6.24 0
v -10.24 -6.08 0
v -10.08 -6.08 0
v -9.92 -6.24 0
v -10.08 -6.24 0
v -10.08 -6.08 0
v -9.92 -6.08 0
v -9.76 -6.24 0
v -9.92 -6.24 0
v -9.92 -6.08 0
v -9.76 -6.08 0
v -9.599999 -6.24 0
v -9.76 -6.24 0
v -9.76 -6.08 0
v -9.599999 -6.08 0
v -9.44 -6.24 0
v -9.599999 -6.24 0
v -9.599999 -6.08 0
v -9.44 -6.08 0
v -10.4 -6.08 0
v -10.56 -6.08 0
v -10.56 -5.92 0
v -10.4 -5.92 0
v -10.24 -6.08 0
v -10.4 -6.08 0
v -10.4 -5.92 0
v -10.24 -5.92 0
v -10.08 -6.08 0
v -10.24 -6.08 0
v -10.24 -5.92 0
v -10.08 -5.92 0
v -9.92 -6.08 0
v -10.08 -6.08 0
v -10.08 -5.92 0
v -9.92 -5.92 0
v -9.76 -6.08 0
v -9.92 -6.08 0
v -9.92 -5.92 0
v -9.76 -5.92 0
v -9.599999 -6.08 0
v -9.76 -6.08 0
v -9.76 -5.92 0
v -9.599999 -5.92 0
v -9.44 -6.08 0
v -9.599999 -6.08 0
v -9.599999 -5.92 0
v -9.44 -5.92 0
v -10.4 -5.92 0
v -10.56 -5.92 0
v -10.56 -5.76 0
v -10.4 -5.76 0
v -10.24 -5.92 0
v -10.4 -5.92 0
v -10.4 -5.76 0
v -10.24 -5.76 0
v -10.08 -5.92 0
v -10.24 -5.92 0
v -10.24 -5.76 0
v -10.08 -5.76 0
v -9.92 -5.92 0
v -10.08 -5.92 0
v -10.08 -5.76 0
v -9.92 -5.76 0
v -9.76 -5.92 0
v -9.92 -5.92 0
v -9.92 -5.76 0
v -9.76 -5.76 0
v -9.599999 -5.92 0
v -9.76 -5.92 0
v -9.76 -5.76 0
v -9.599999 -5.76 0
v -9.44 -5.92 0
v -9.599999 -5.92 0
v -9.599999 -5.76 0
v -9.44 -5.76 0
v -10.4 -5.76 0
v -10.56 -5.76 0
v -10.56 -5.6 0
v -10.4 -5.6 0
v -10.24 -5.76 0
v -10.4 -5.76 0
v -10.4 -5.6 0
v -10.24 -5.6 0
v -10.08 -5.76 0
v -10.24 -5.76 0
v -10.24 -5.6 0
v -10.08 -5.6 0
v -9.92 -5.76 0
v -10.08 -5.76 0
v -10.08 -5.6 0
v -9.92 -5.6 0
v -9.76 -5.76 0
v -9.92 -5.76 0
v -9.92 -5.6 0
v -9.76 -5.6 0
v -9.599999 -5.76 0
v -9.76 -5.76 0
v -9.76 -5.6 0
v -9.599999 -5.6 0
v -9.44 -5.76 0
v -9.599999 -5.76 0
v -9.599999 -5.6 0
v -9.44 -5.6 0
v -10.4 -5.6 0
v -10.56 -5.6 0
v -10.56 -5.44 0
v -10.4 -5.44 0
v -10.24 -5.6 0
v -10.4 -5.6 0
v -10.4 -5.44 0
v -10.24 -5.44 0
v -10.08 -5.6 0
v -10.24 -5.6 0
v -10.24 -5.44 0
v -10.08 -5.44 0
v -9.92 -5.6 0
v -10.08 -5.6 0
v -10.08 -5.44 0
v -9.92 -5.44 0
v -9.76 -5.6 0
v -9.92 -5.6 0
v -9.92 -5.44 0
v -9.76 -5.44 0
v -9.599999 -5.6 0
v -9.76 -5.6 0
v -9.76 -5.44 0
v -9.599999 -5.44 0
v -9.44 -5.6 0
v -9.599999 -5.6 0
v -9.599999 -5.44 0
v -9.44 -5.44 0

# Texture cooridinates (Count = 80)
vt 0.04347826 0.7894737
vt 0.05797102 0.7894737
vt 0.05797102 0.8157895
vt 0.04347826 0.8157895
vt 0.1014493 0.7894737
vt 0.115942 0.7894737
vt 0.115942 0.8157895
vt 0.1014493 0.8157895
vt 0.08695652 0.7894737
vt 0.08695652 0.8157895
vt 0.07246377 0.7894737
vt 0.07246377 0.8157895
vt 0.02898551 0.7894737
vt 0.02898551 0.8157895
vt 0.01449275 0.7894737
vt 0.01449275 0.8157895
vt 0.05797102 0.8421053
vt 0.04347826 0.8421053
vt 0.115942 0.8421053
vt 0.1014493 0.8421053
vt 0.08695652 0.8421053
vt 0.07246377 0.8421053
vt 0.02898551 0.8421053
vt 0.01449275 0.8421053
vt 0.7681159 0.5789474
vt 0.7826087 0.5789474
vt 0.7826087 0.6052631
vt 0.7681159 0.6052631
vt 0.7536232 0.5789474
vt 0.7536232 0.6052631
vt 0.7391304 0.5789474
vt 0.7391304 0.6052631
vt 0.7246377 0.5789474
vt 0.7246377 0.6052631
vt 0.7101449 0.5789474
vt 0.7101449 0.6052631
vt 0.6956522 0.5789474
vt 0.6956522 0.6052631
vt 0.6811594 0.5789474
vt 0.6811594 0.6052631
vt 0.7826087 0.6315789
vt 0.7681159 0.6315789
vt 0.7536232 0.6315789
vt 0.7391304 0.6315789
vt 0.7246377 0.6315789
vt 0.7101449 0.6315789
vt 0.6956522 0.6315789
vt 0.6811594 0.6315789
vt 0.7681159 0.6842105
vt 0.7826087 0.6842105
vt 0.7826087 0.7105263
vt 0.7681159 0.7105263
vt 0.7536232 0.6842105
vt 0.7536232 0.7105263
vt 0.7391304 0.6842105
vt 0.7391304 0.7105263
vt 0.7246377 0.6842105
vt 0.7246377 0.7105263
vt 0.7101449 0.6842105
vt 0.7101449 0.7105263
vt 0.6956522 0.6842105
vt 0.6956522 0.7105263
vt 0.6811594 0.6842105
vt 0.6811594 0.7105263
vt 0.7826087 0.7368421
vt 0.7681159 0.7368421
vt 0.7536232 0.7368421
vt 0.7391304 0.7368421
vt 0.7246377 0.7368421
vt 0.7101449 0.7368421
vt 0.6956522 0.7368421
vt 0.6811594 0.7368421
vt 0.7826087 0.7631579
vt 0.7681159 0.7631579
vt 0.7536232 0.7631579
vt 0.7391304 0.7631579
vt 0.7246377 0.7631579
vt 0.7101449 0.7631579
vt 0.6956522 0.7631579
vt 0.6811594 0.7631579

# Normal
vn 0 0 -1

# Mesh description
g NewTown_mesh_0009

# Faces
f 1/1/1 2/2/1 3/3/1 4/4/1
f 5/5/1 6/6/1 7/7/1 8/8/1
f 9/9/1 10/5/1 11/8/1 12/10/1
f 13/11/1 14/9/1 15/10/1 16/12/1
f 17/2/1 18/11/1 19/12/1 20/3/1
f 21/13/1 22/1/1 23/4/1 24/14/1
f 25/15/1 26/13/1 27/14/1 28/16/1
f 29/4/1 30/3/1 31/17/1 32/18/1
f 33/8/1 34/7/1 35/19/1 36/20/1
f 37/10/1 38/8/1 39/20/1 40/21/1
f 41/12/1 42/10/1 43/21/1 44/22/1
f 45/3/1 46/12/1 47/22/1 48/17/1
f 49/14/1 50/4/1 51/18/1 52/23/1
f 53/16/1 54/14/1 55/23/1 56/24/1
f 57/25/1 58/26/1 59/27/1 60/28/1
f 61/29/1 62/25/1 63/28/1 64/30/1
f 65/31/1 66/29/1 67/30/1 68/32/1
f 69/33/1 70/31/1 71/32/1 72/34/1
f 73/35/1 74/33/1 75/34/1 76/36/1
f 77/37/1 78/35/1 79/36/1 80/38/1
f 81/39/1 82/37/1 83/38/1 84/40/1
f 85/28/1 86/27/1 87/41/1 88/42/1
f 89/30/1 90/28/1 91/42/1 92/43/1
f 93/32/1 94/30/1 95/43/1 96/44/1
f 97/34/1 98/32/1 99/44/1 100/45/1
f 101/36/1 102/34/1 103/45/1 104/46/1
f 105/38/1 106/36/1 107/46/1 108/47/1
f 109/40/1 110/38/1 111/47/1 112/48/1
f 113/49/1 114/50/1 115/51/1 116/52/1
f 117/53/1 118/49/1 119/52/1 120/54/1
f 121/55/1 122/53/1 123/54/1 124/56/1
f 125/57/1 126/55/1 127/56/1 128/58/1
f 129/59/1 130/57/1 131/58/1 132/60/1
f 133/61/1 134/59/1 135/60/1 136/62/1
f 137/63/1 138/61/1 139/62/1 140/64/1
f 141/52/1 142/51/1 143/65/1 144/66/1
f 145/54/1 146/52/1 147/66/1 148/67/1
f 149/56/1 150/54/1 151/67/1 152/68/1
f 153/58/1 154/56/1 155/68/1 156/69/1
f 157/60/1 158/58/1 159/69/1 160/70/1
f 161/62/1 162/60/1 163/70/1 164/71/1
f 165/64/1 166/62/1 167/71/1 168/72/1
f 169/66/1 170/65/1 171/73/1 172/74/1
f 173/67/1 174/66/1 175/74/1 176/75/1
f 177/68/1 178/67/1 179/75/1 180/76/1
f 181/69/1 182/68/1 183/76/1 184/77/1
f 185/70/1 186/69/1 187/77/1 188/78/1
f 189/71/1 190/70/1 191/78/1 192/79/1
f 193/72/1 194/71/1 195/79/1 196/80/1

