# Tiled2Unity generated file. Do not modify by hand.
# Wavefront file for 'NewTown_mesh_0006.obj'

# Vertices (Count = 280)
v -14.08 -6.4 0
v -14.24 -6.4 0
v -14.24 -6.24 0
v -14.08 -6.24 0
v -13.92 -6.4 0
v -14.08 -6.4 0
v -14.08 -6.24 0
v -13.92 -6.24 0
v -13.76 -6.4 0
v -13.92 -6.4 0
v -13.92 -6.24 0
v -13.76 -6.24 0
v -13.6 -6.4 0
v -13.76 -6.4 0
v -13.76 -6.24 0
v -13.6 -6.24 0
v -13.44 -6.4 0
v -13.6 -6.4 0
v -13.6 -6.24 0
v -13.44 -6.24 0
v -13.28 -6.4 0
v -13.44 -6.4 0
v -13.44 -6.24 0
v -13.28 -6.24 0
v -13.12 -6.4 0
v -13.28 -6.4 0
v -13.28 -6.24 0
v -13.12 -6.24 0
v -14.08 -6.24 0
v -14.24 -6.24 0
v -14.24 -6.08 0
v -14.08 -6.08 0
v -13.92 -6.24 0
v -14.08 -6.24 0
v -14.08 -6.08 0
v -13.92 -6.08 0
v -13.76 -6.24 0
v -13.92 -6.24 0
v -13.92 -6.08 0
v -13.76 -6.08 0
v -13.6 -6.24 0
v -13.76 -6.24 0
v -13.76 -6.08 0
v -13.6 -6.08 0
v -13.44 -6.24 0
v -13.6 -6.24 0
v -13.6 -6.08 0
v -13.44 -6.08 0
v -13.28 -6.24 0
v -13.44 -6.24 0
v -13.44 -6.08 0
v -13.28 -6.08 0
v -13.12 -6.24 0
v -13.28 -6.24 0
v -13.28 -6.08 0
v -13.12 -6.08 0
v -10.4 -6.24 0
v -10.56 -6.24 0
v -10.56 -6.08 0
v -10.4 -6.08 0
v -10.24 -6.24 0
v -10.4 -6.24 0
v -10.4 -6.08 0
v -10.24 -6.08 0
v -10.08 -6.24 0
v -10.24 -6.24 0
v -10.24 -6.08 0
v -10.08 -6.08 0
v -9.92 -6.24 0
v -10.08 -6.24 0
v -10.08 -6.08 0
v -9.92 -6.08 0
v -9.76 -6.24 0
v -9.92 -6.24 0
v -9.92 -6.08 0
v -9.76 -6.08 0
v -9.599999 -6.24 0
v -9.76 -6.24 0
v -9.76 -6.08 0
v -9.599999 -6.08 0
v -9.44 -6.24 0
v -9.599999 -6.24 0
v -9.599999 -6.08 0
v -9.44 -6.08 0
v -14.08 -6.08 0
v -14.24 -6.08 0
v -14.24 -5.92 0
v -14.08 -5.92 0
v -13.92 -6.08 0
v -14.08 -6.08 0
v -14.08 -5.92 0
v -13.92 -5.92 0
v -13.76 -6.08 0
v -13.92 -6.08 0
v -13.92 -5.92 0
v -13.76 -5.92 0
v -13.6 -6.08 0
v -13.76 -6.08 0
v -13.76 -5.92 0
v -13.6 -5.92 0
v -13.44 -6.08 0
v -13.6 -6.08 0
v -13.6 -5.92 0
v -13.44 -5.92 0
v -13.28 -6.08 0
v -13.44 -6.08 0
v -13.44 -5.92 0
v -13.28 -5.92 0
v -13.12 -6.08 0
v -13.28 -6.08 0
v -13.28 -5.92 0
v -13.12 -5.92 0
v -10.4 -6.08 0
v -10.56 -6.08 0
v -10.56 -5.92 0
v -10.4 -5.92 0
v -10.24 -6.08 0
v -10.4 -6.08 0
v -10.4 -5.92 0
v -10.24 -5.92 0
v -10.08 -6.08 0
v -10.24 -6.08 0
v -10.24 -5.92 0
v -10.08 -5.92 0
v -9.92 -6.08 0
v -10.08 -6.08 0
v -10.08 -5.92 0
v -9.92 -5.92 0
v -9.76 -6.08 0
v -9.92 -6.08 0
v -9.92 -5.92 0
v -9.76 -5.92 0
v -9.599999 -6.08 0
v -9.76 -6.08 0
v -9.76 -5.92 0
v -9.599999 -5.92 0
v -9.44 -6.08 0
v -9.599999 -6.08 0
v -9.599999 -5.92 0
v -9.44 -5.92 0
v -14.08 -5.92 0
v -14.24 -5.92 0
v -14.24 -5.76 0
v -14.08 -5.76 0
v -13.92 -5.92 0
v -14.08 -5.92 0
v -14.08 -5.76 0
v -13.92 -5.76 0
v -13.76 -5.92 0
v -13.92 -5.92 0
v -13.92 -5.76 0
v -13.76 -5.76 0
v -13.6 -5.92 0
v -13.76 -5.92 0
v -13.76 -5.76 0
v -13.6 -5.76 0
v -13.44 -5.92 0
v -13.6 -5.92 0
v -13.6 -5.76 0
v -13.44 -5.76 0
v -13.28 -5.92 0
v -13.44 -5.92 0
v -13.44 -5.76 0
v -13.28 -5.76 0
v -13.12 -5.92 0
v -13.28 -5.92 0
v -13.28 -5.76 0
v -13.12 -5.76 0
v -10.4 -5.92 0
v -10.56 -5.92 0
v -10.56 -5.76 0
v -10.4 -5.76 0
v -10.24 -5.92 0
v -10.4 -5.92 0
v -10.4 -5.76 0
v -10.24 -5.76 0
v -10.08 -5.92 0
v -10.24 -5.92 0
v -10.24 -5.76 0
v -10.08 -5.76 0
v -9.92 -5.92 0
v -10.08 -5.92 0
v -10.08 -5.76 0
v -9.92 -5.76 0
v -9.76 -5.92 0
v -9.92 -5.92 0
v -9.92 -5.76 0
v -9.76 -5.76 0
v -9.599999 -5.92 0
v -9.76 -5.92 0
v -9.76 -5.76 0
v -9.599999 -5.76 0
v -9.44 -5.92 0
v -9.599999 -5.92 0
v -9.599999 -5.76 0
v -9.44 -5.76 0
v -14.08 -5.76 0
v -14.24 -5.76 0
v -14.24 -5.6 0
v -14.08 -5.6 0
v -13.92 -5.76 0
v -14.08 -5.76 0
v -14.08 -5.6 0
v -13.92 -5.6 0
v -13.76 -5.76 0
v -13.92 -5.76 0
v -13.92 -5.6 0
v -13.76 -5.6 0
v -13.6 -5.76 0
v -13.76 -5.76 0
v -13.76 -5.6 0
v -13.6 -5.6 0
v -13.44 -5.76 0
v -13.6 -5.76 0
v -13.6 -5.6 0
v -13.44 -5.6 0
v -13.28 -5.76 0
v -13.44 -5.76 0
v -13.44 -5.6 0
v -13.28 -5.6 0
v -13.12 -5.76 0
v -13.28 -5.76 0
v -13.28 -5.6 0
v -13.12 -5.6 0
v -10.4 -5.76 0
v -10.56 -5.76 0
v -10.56 -5.6 0
v -10.4 -5.6 0
v -10.24 -5.76 0
v -10.4 -5.76 0
v -10.4 -5.6 0
v -10.24 -5.6 0
v -10.08 -5.76 0
v -10.24 -5.76 0
v -10.24 -5.6 0
v -10.08 -5.6 0
v -9.92 -5.76 0
v -10.08 -5.76 0
v -10.08 -5.6 0
v -9.92 -5.6 0
v -9.76 -5.76 0
v -9.92 -5.76 0
v -9.92 -5.6 0
v -9.76 -5.6 0
v -9.599999 -5.76 0
v -9.76 -5.76 0
v -9.76 -5.6 0
v -9.599999 -5.6 0
v -9.44 -5.76 0
v -9.599999 -5.76 0
v -9.599999 -5.6 0
v -9.44 -5.6 0
v -10.4 -5.6 0
v -10.56 -5.6 0
v -10.56 -5.44 0
v -10.4 -5.44 0
v -10.24 -5.6 0
v -10.4 -5.6 0
v -10.4 -5.44 0
v -10.24 -5.44 0
v -10.08 -5.6 0
v -10.24 -5.6 0
v -10.24 -5.44 0
v -10.08 -5.44 0
v -9.92 -5.6 0
v -10.08 -5.6 0
v -10.08 -5.44 0
v -9.92 -5.44 0
v -9.76 -5.6 0
v -9.92 -5.6 0
v -9.92 -5.44 0
v -9.76 -5.44 0
v -9.599999 -5.6 0
v -9.76 -5.6 0
v -9.76 -5.44 0
v -9.599999 -5.44 0
v -9.44 -5.6 0
v -9.599999 -5.6 0
v -9.599999 -5.44 0
v -9.44 -5.44 0

# Texture cooridinates (Count = 104)
vt 0.5652174 0.02631581
vt 0.5797101 0.02631581
vt 0.5797101 0.05263156
vt 0.5652174 0.05263156
vt 0.5507246 0.02631581
vt 0.5507246 0.05263156
vt 0.5362319 0.02631581
vt 0.5362319 0.05263156
vt 0.5217391 0.02631581
vt 0.5217391 0.05263156
vt 0.5072464 0.02631581
vt 0.5072464 0.05263156
vt 0.4927536 0.02631581
vt 0.4927536 0.05263156
vt 0.4782609 0.02631581
vt 0.4782609 0.05263156
vt 0.5797101 0.07894737
vt 0.5652174 0.07894737
vt 0.5507246 0.07894737
vt 0.5362319 0.07894737
vt 0.5217391 0.07894737
vt 0.5072464 0.07894737
vt 0.4927536 0.07894737
vt 0.4782609 0.07894737
vt 0.7681159 0.6315789
vt 0.7826087 0.6315789
vt 0.7826087 0.6578947
vt 0.7681159 0.6578947
vt 0.7536232 0.6315789
vt 0.7536232 0.6578947
vt 0.7391304 0.6315789
vt 0.7391304 0.6578947
vt 0.7246377 0.6315789
vt 0.7246377 0.6578947
vt 0.7101449 0.6315789
vt 0.7101449 0.6578947
vt 0.6956522 0.6315789
vt 0.6956522 0.6578947
vt 0.6811594 0.6315789
vt 0.6811594 0.6578947
vt 0.5652174 0.6842105
vt 0.5797101 0.6842105
vt 0.5797101 0.7105263
vt 0.5652174 0.7105263
vt 0.5507246 0.6842105
vt 0.5507246 0.7105263
vt 0.5362319 0.6842105
vt 0.5362319 0.7105263
vt 0.5217391 0.6842105
vt 0.5217391 0.7105263
vt 0.5072464 0.6842105
vt 0.5072464 0.7105263
vt 0.4927536 0.6842105
vt 0.4927536 0.7105263
vt 0.4782609 0.6842105
vt 0.4782609 0.7105263
vt 0.7826087 0.6842105
vt 0.7681159 0.6842105
vt 0.7536232 0.6842105
vt 0.7391304 0.6842105
vt 0.7246377 0.6842105
vt 0.7101449 0.6842105
vt 0.6956522 0.6842105
vt 0.6811594 0.6842105
vt 0.5797101 0.7368421
vt 0.5652174 0.7368421
vt 0.5507246 0.7368421
vt 0.5362319 0.7368421
vt 0.5217391 0.7368421
vt 0.5072464 0.7368421
vt 0.4927536 0.7368421
vt 0.4782609 0.7368421
vt 0.7826087 0.7105263
vt 0.7681159 0.7105263
vt 0.7536232 0.7105263
vt 0.7391304 0.7105263
vt 0.7246377 0.7105263
vt 0.7101449 0.7105263
vt 0.6956522 0.7105263
vt 0.6811594 0.7105263
vt 0.5797101 0.7631579
vt 0.5652174 0.7631579
vt 0.5507246 0.7631579
vt 0.5362319 0.7631579
vt 0.5217391 0.7631579
vt 0.5072464 0.7631579
vt 0.4927536 0.7631579
vt 0.4782609 0.7631579
vt 0.7826087 0.7368421
vt 0.7681159 0.7368421
vt 0.7536232 0.7368421
vt 0.7391304 0.7368421
vt 0.7246377 0.7368421
vt 0.7101449 0.7368421
vt 0.6956522 0.7368421
vt 0.6811594 0.7368421
vt 0.7826087 0.7631579
vt 0.7681159 0.7631579
vt 0.7536232 0.7631579
vt 0.7391304 0.7631579
vt 0.7246377 0.7631579
vt 0.7101449 0.7631579
vt 0.6956522 0.7631579
vt 0.6811594 0.7631579

# Normal
vn 0 0 -1

# Mesh description
g NewTown_mesh_0006

# Faces
f 1/1/1 2/2/1 3/3/1 4/4/1
f 5/5/1 6/1/1 7/4/1 8/6/1
f 9/7/1 10/5/1 11/6/1 12/8/1
f 13/9/1 14/7/1 15/8/1 16/10/1
f 17/11/1 18/9/1 19/10/1 20/12/1
f 21/13/1 22/11/1 23/12/1 24/14/1
f 25/15/1 26/13/1 27/14/1 28/16/1
f 29/4/1 30/3/1 31/17/1 32/18/1
f 33/6/1 34/4/1 35/18/1 36/19/1
f 37/8/1 38/6/1 39/19/1 40/20/1
f 41/10/1 42/8/1 43/20/1 44/21/1
f 45/12/1 46/10/1 47/21/1 48/22/1
f 49/14/1 50/12/1 51/22/1 52/23/1
f 53/16/1 54/14/1 55/23/1 56/24/1
f 57/25/1 58/26/1 59/27/1 60/28/1
f 61/29/1 62/25/1 63/28/1 64/30/1
f 65/31/1 66/29/1 67/30/1 68/32/1
f 69/33/1 70/31/1 71/32/1 72/34/1
f 73/35/1 74/33/1 75/34/1 76/36/1
f 77/37/1 78/35/1 79/36/1 80/38/1
f 81/39/1 82/37/1 83/38/1 84/40/1
f 85/41/1 86/42/1 87/43/1 88/44/1
f 89/45/1 90/41/1 91/44/1 92/46/1
f 93/47/1 94/45/1 95/46/1 96/48/1
f 97/49/1 98/47/1 99/48/1 100/50/1
f 101/51/1 102/49/1 103/50/1 104/52/1
f 105/53/1 106/51/1 107/52/1 108/54/1
f 109/55/1 110/53/1 111/54/1 112/56/1
f 113/28/1 114/27/1 115/57/1 116/58/1
f 117/30/1 118/28/1 119/58/1 120/59/1
f 121/32/1 122/30/1 123/59/1 124/60/1
f 125/34/1 126/32/1 127/60/1 128/61/1
f 129/36/1 130/34/1 131/61/1 132/62/1
f 133/38/1 134/36/1 135/62/1 136/63/1
f 137/40/1 138/38/1 139/63/1 140/64/1
f 141/44/1 142/43/1 143/65/1 144/66/1
f 145/46/1 146/44/1 147/66/1 148/67/1
f 149/48/1 150/46/1 151/67/1 152/68/1
f 153/50/1 154/48/1 155/68/1 156/69/1
f 157/52/1 158/50/1 159/69/1 160/70/1
f 161/54/1 162/52/1 163/70/1 164/71/1
f 165/56/1 166/54/1 167/71/1 168/72/1
f 169/58/1 170/57/1 171/73/1 172/74/1
f 173/59/1 174/58/1 175/74/1 176/75/1
f 177/60/1 178/59/1 179/75/1 180/76/1
f 181/61/1 182/60/1 183/76/1 184/77/1
f 185/62/1 186/61/1 187/77/1 188/78/1
f 189/63/1 190/62/1 191/78/1 192/79/1
f 193/64/1 194/63/1 195/79/1 196/80/1
f 197/66/1 198/65/1 199/81/1 200/82/1
f 201/67/1 202/66/1 203/82/1 204/83/1
f 205/68/1 206/67/1 207/83/1 208/84/1
f 209/69/1 210/68/1 211/84/1 212/85/1
f 213/70/1 214/69/1 215/85/1 216/86/1
f 217/71/1 218/70/1 219/86/1 220/87/1
f 221/72/1 222/71/1 223/87/1 224/88/1
f 225/74/1 226/73/1 227/89/1 228/90/1
f 229/75/1 230/74/1 231/90/1 232/91/1
f 233/76/1 234/75/1 235/91/1 236/92/1
f 237/77/1 238/76/1 239/92/1 240/93/1
f 241/78/1 242/77/1 243/93/1 244/94/1
f 245/79/1 246/78/1 247/94/1 248/95/1
f 249/80/1 250/79/1 251/95/1 252/96/1
f 253/90/1 254/89/1 255/97/1 256/98/1
f 257/91/1 258/90/1 259/98/1 260/99/1
f 261/92/1 262/91/1 263/99/1 264/100/1
f 265/93/1 266/92/1 267/100/1 268/101/1
f 269/94/1 270/93/1 271/101/1 272/102/1
f 273/95/1 274/94/1 275/102/1 276/103/1
f 277/96/1 278/95/1 279/103/1 280/104/1

